<?xml version="1.0"?>
<svg xmlns="http://www.w3.org/2000/svg" id="Layer_1" data-name="Layer 1" viewBox="0 0 128 128" fill="#FFFFFF"><title>TEACHER</title><path d="M117,20.75A1.75,1.75,0,0,0,118.75,19V11A1.75,1.75,0,0,0,117,9.25H11A1.75,1.75,0,0,0,9.25,11v8A1.75,1.75,0,0,0,11,20.75h4.25V74.583H11a1.75,1.75,0,0,0-1.75,1.75v8A1.75,1.75,0,0,0,11,86.083h6.857a33.878,33.878,0,0,0-8.241,22.183V117a1.75,1.75,0,0,0,3.5,0v-8.734A30.361,30.361,0,0,1,26.969,82.739l10.2,8.806a1.75,1.75,0,0,0,2.417-.123l2.353-2.5,1.893,3.786L39.2,116.668a1.75,1.75,0,0,0,1.386,2.05,1.7,1.7,0,0,0,.334.032,1.751,1.751,0,0,0,1.716-1.418l3.029-15.656,3.028,15.656a1.75,1.75,0,0,0,3.437-.664L47.494,92.712l1.892-3.784,2.352,2.494a1.75,1.75,0,0,0,2.417.123l10.4-8.976L81.528,93.33a4.936,4.936,0,0,0,6.916-1.7L99.168,73.052l6.207,3.583L93.319,97.518a11.577,11.577,0,0,1-15.862,4.21l-4.895-2.643a1.75,1.75,0,0,0-2.582,1.556l.145,16.375a1.75,1.75,0,0,0,1.75,1.734h.016a1.75,1.75,0,0,0,1.734-1.766l-.119-13.412,2.243,1.211a15.077,15.077,0,0,0,20.6-5.516l7.612-13.185H117a1.75,1.75,0,0,0,1.75-1.75v-8a1.75,1.75,0,0,0-1.75-1.75h-4.25V20.75Zm-104.25-8h102.5v4.5H12.75Zm6,47.318a7.846,7.846,0,0,0,5.893,5.945v1.451a16.583,16.583,0,0,0,1.614,7.118H18.75ZM94.243,74.583H86.5V72h9.234Zm-2.021,3.5-2.6,4.5H71.111l-7.1-4.5ZM66.682,54.436a4.318,4.318,0,0,1,0,7.905Zm-3.5,13.029A13.228,13.228,0,0,1,49.969,80.678H41.356A13.229,13.229,0,0,1,28.143,67.465V49.142a14.986,14.986,0,0,1,1.488-6.517,15.258,15.258,0,0,0,9.061,2.614H48.45a16.558,16.558,0,0,1,11.719,4.818l3.014,2.982Zm-.552-19.9a20.037,20.037,0,0,0-14.181-5.83H38.692c-3.668,0-6.54-1.105-8.534-3.287-2.949-3.225-3.441-8.094-3.485-10.583H45.663c13.558,0,16.687,12.648,17.353,20.081ZM24.643,62.341a4.318,4.318,0,0,1,0-7.905ZM12.75,78.083H28.006a33.959,33.959,0,0,0-6.65,4.5H12.75ZM38.188,87.8,30.2,80.9c.257-.125.521-.24.783-.359a16.619,16.619,0,0,0,10.376,3.635h.25Zm7.475.746L44.5,86.215l1.166-1.236,1.167,1.237Zm7.473-.746-3.418-3.624h.251a16.628,16.628,0,0,0,10.816-3.995l.677.429Zm31.376,2.753a1.424,1.424,0,0,1-1.11-.182l-6.768-4.29H87.6l-2.191,3.795A1.425,1.425,0,0,1,84.512,90.555Zm16.051-20.74a3.974,3.974,0,1,1,6.71,3.874ZM115.25,82.583h-9.268l2.6-4.5h6.67Zm-6-17.246a7.441,7.441,0,0,0-4.9-1.837,7.538,7.538,0,0,0-1.558.166L89.208,38.386a1.75,1.75,0,0,0-3.083,1.656l13.51,25.133A7.456,7.456,0,0,0,97.294,68.5H84.75A1.75,1.75,0,0,0,83,70.25v4.333H65.068a16.583,16.583,0,0,0,1.614-7.118V66.014a7.822,7.822,0,0,0,0-15.251V49.142a1.734,1.734,0,0,0-.105-.577c-.811-12.207-6.613-24.2-20.914-24.2h-20.7a1.75,1.75,0,0,0-1.743,1.588c-.033.359-.716,8.52,3.769,14.149a18.462,18.462,0,0,0-2.349,9.036v1.621a7.847,7.847,0,0,0-5.893,5.946V20.75h90.5Z"/><path d="M22.691,100.961a1.75,1.75,0,0,0-1.75,1.75V117a1.75,1.75,0,0,0,3.5,0V102.711A1.75,1.75,0,0,0,22.691,100.961Z"/><path d="M50.408,64.165a1.75,1.75,0,0,0-1.75,1.75,3,3,0,0,1-5.993,0,1.75,1.75,0,0,0-3.5,0,6.5,6.5,0,0,0,12.993,0A1.75,1.75,0,0,0,50.408,64.165Z"/><path d="M40.983,55.439A2.884,2.884,0,1,0,38.1,58.323,2.888,2.888,0,0,0,40.983,55.439Z"/><path d="M53.226,52.556a2.884,2.884,0,1,0,2.884,2.884A2.887,2.887,0,0,0,53.226,52.556Z"/></svg>
