<svg id="Layer_1" viewBox="0 0 128 128" xmlns="http://www.w3.org/2000/svg" data-name="Layer 1" fill="#FFFFFF"><path d="m117 51.626h-8.164a1.751 1.751 0 0 0 .841-2.324l-10.27-21.98a1.751 1.751 0 0 0 -2.327-.845l-4.706 2.2a1.746 1.746 0 0 0 -1.688-1.311h-7.874a1.75 1.75 0 0 0 -1.75 1.75v22.51h-26.93l-1.619-4.136h19.319a1.75 1.75 0 0 0 1.75-1.75v-33.25a1.75 1.75 0 0 0 -1.75-1.75h-51.924a1.75 1.75 0 0 0 -1.75 1.75v33.25a1.75 1.75 0 0 0 1.75 1.75h19.454l-1.619 4.136h-26.743a1.75 1.75 0 0 0 -1.75 1.75v8a1.75 1.75 0 0 0 1.75 1.75h4.583v44.421a1.75 1.75 0 0 0 1.75 1.75h4.333l-2.926 5.376a1.75 1.75 0 0 0 1.537 2.586h6a1.751 1.751 0 0 0 1.537-.914l3.836-7.045h64.7l3.836 7.049a1.751 1.751 0 0 0 1.537.914h6a1.75 1.75 0 0 0 1.537-2.586l-2.926-5.376h4.333a1.75 1.75 0 0 0 1.75-1.75v-44.425h4.583a1.75 1.75 0 0 0 1.75-1.75v-8a1.75 1.75 0 0 0 -1.75-1.75zm-32.438-15.037h4.375v5.563h-4.375zm7.875 2.687 5.771 12.35h-5.771zm4.54-8.887 8.789 18.811-3.966 1.85-8.786-18.809zm-8.04.477v2.224h-4.375v-2.225zm-4.375 14.786h4.375v5.974h-4.375zm-62.904-31.412h48.424v29.75h-48.424zm21.464 33.25h5.631l1.619 4.136h-8.872zm-17.885 66.27h-2.015l2.428-4.46h2.015zm79.541 0h-2.016l-2.428-4.462h2.015zm4.139-7.962h-89.834v-42.672h89.834zm6.333-46.171h-102.5v-4.5h102.5z"/><path d="m45.87 32.209a3.094 3.094 0 1 0 -3.094-3.094 3.1 3.1 0 0 0 3.094 3.094z"/></svg>